<?xml version="1.0" standalone="no"?>
<!DOCTYPE svg PUBLIC "-//W3C//DTD SVG 20010904//EN"
 "http://www.w3.org/TR/2001/REC-SVG-20010904/DTD/svg10.dtd">
<svg version="1.0" xmlns="http://www.w3.org/2000/svg"
 width="1024.000000pt" height="1024.000000pt" viewBox="0 0 1024.000000 1024.000000"
 preserveAspectRatio="xMidYMid meet">

<g transform="translate(0.000000,1024.000000) scale(0.100000,-0.100000)"
fill="#000000" stroke="none">
<path d="M0 5120 l0 -5120 5120 0 5120 0 0 5120 0 5120 -5120 0 -5120 0 0
-5120z m5450 2535 c573 -85 1079 -417 1390 -915 124 -197 227 -450 270 -658
31 -153 51 -432 34 -476 -5 -14 -56 -16 -471 -16 -495 0 -507 1 -533 49 -19
36 -12 86 16 112 l26 24 419 3 419 3 0 24 c0 54 -23 187 -52 300 -146 569
-504 1017 -1012 1264 -283 138 -533 187 -900 179 -220 -6 -345 -27 -525 -90
-258 -89 -539 -263 -696 -429 -255 -270 -415 -545 -510 -873 -28 -100 -65
-292 -65 -342 l0 -33 381 -3 381 -3 30 -34 c37 -41 33 -82 -12 -123 l-30 -28
-435 0 -434 0 -7 36 c-10 55 13 313 41 449 78 384 283 755 581 1047 126 123
165 155 294 241 254 169 588 285 895 311 95 8 400 -4 505 -19z m-92 -226 c277
-30 523 -119 745 -269 367 -248 622 -602 741 -1027 29 -105 56 -240 48 -248
-3 -3 -33 -5 -67 -5 l-61 0 -19 95 c-10 52 -22 92 -26 90 -4 -3 -5 5 -1 17 3
11 1 19 -4 16 -5 -4 -9 8 -10 25 0 18 -9 50 -19 72 -10 22 -18 47 -19 55 -1 8
-9 14 -18 14 -14 -1 -16 2 -7 17 6 13 6 19 -1 19 -5 0 -10 -6 -10 -12 0 -7
-22 28 -48 77 -242 465 -638 764 -1152 872 -133 28 -480 26 -615 -4 -349 -78
-627 -240 -861 -503 -193 -218 -361 -540 -405 -778 l-13 -73 -76 3 -75 3 3 30
c6 64 64 275 103 375 92 237 246 478 417 654 117 120 316 261 477 337 125 60
335 124 463 143 118 17 378 20 510 5z m-103 -474 c90 -14 229 -50 315 -82 123
-44 330 -165 330 -193 0 -4 -42 10 -92 32 -270 118 -615 210 -880 235 -37 3
-68 10 -68 14 0 15 298 10 395 -6z m-369 -76 c135 -13 319 -49 488 -95 177
-49 281 -86 415 -150 l114 -55 -29 -30 c-49 -51 -86 -54 -187 -15 -305 120
-704 212 -969 223 -118 5 -141 4 -163 -11 -24 -15 -25 -15 -25 1 1 24 33 95
51 110 36 29 147 38 305 22z m99 -253 c128 -23 281 -62 415 -106 187 -61 370
-134 370 -146 0 -3 -7 -30 -15 -59 l-16 -53 -82 35 c-248 106 -668 208 -939
229 -49 4 -88 10 -88 14 0 3 7 30 16 59 l15 52 117 -5 c64 -2 158 -11 207 -20z
m-235 -196 c330 -30 679 -124 922 -249 74 -38 132 -74 130 -80 -1 -7 2 -10 8
-6 5 3 20 -1 32 -9 14 -10 17 -16 8 -16 -9 0 -8 -4 6 -14 10 -8 21 -11 24 -6
3 4 14 1 26 -9 l21 -17 -20 -51 c-18 -48 -20 -50 -37 -35 -11 8 -17 19 -14 24
5 7 -8 12 -27 10 -3 -1 -6 6 -6 14 0 8 4 14 8 14 3 0 9 11 12 25 3 17 0 24 -7
22 -6 -2 -18 0 -28 4 -11 6 -18 4 -22 -7 -4 -10 -1 -13 7 -9 6 4 4 0 -5 -8
-10 -8 -14 -17 -10 -22 8 -8 -34 9 -139 59 -92 43 -395 145 -534 180 -189 47
-342 69 -487 70 -76 1 -137 3 -135 6 47 94 58 109 84 113 50 7 67 7 183 -3z
m185 -250 c216 -44 420 -106 603 -182 53 -23 72 -36 72 -50 0 -95 -127 -518
-175 -582 -16 -21 -8 -23 -162 33 -211 76 -568 160 -782 184 l-108 12 32 110
c19 61 52 178 75 260 22 83 48 174 56 204 l15 54 112 -6 c62 -4 180 -20 262
-37z m-2165 -530 l0 -220 -33 0 c-136 0 -271 114 -269 228 1 102 137 210 265
212 l37 0 0 -220z m4870 201 c103 -39 170 -117 170 -197 0 -112 -133 -224
-267 -224 l-33 0 0 220 0 220 40 0 c22 0 63 -9 90 -19z m459 -90 c132 -62 80
-236 -74 -249 l-55 -4 0 135 c0 99 3 137 13 140 20 7 79 -4 116 -22z m-5799
-116 l0 -135 -42 0 c-86 0 -158 64 -158 140 0 70 71 130 153 130 l47 0 0 -135z
m3557 -221 c-9 -82 -68 -122 -111 -75 -15 16 -16 25 -7 59 6 21 12 58 13 81 1
22 5 41 10 41 5 0 7 10 3 23 -4 15 10 6 45 -33 48 -51 51 -58 47 -96z m-1300
66 c305 -52 658 -154 849 -244 52 -25 94 -47 94 -49 0 -4 -47 -92 -55 -105 -1
-1 -26 8 -56 22 -332 147 -1021 298 -1147 253 -22 -8 -23 -7 -17 13 4 12 18
46 31 76 l24 54 79 0 c43 0 132 -9 198 -20z m-1310 -16 c19 -5 22 -15 28 -82
14 -153 95 -423 175 -582 104 -206 302 -449 505 -618 222 -186 499 -322 786
-386 345 -77 710 -50 1047 77 71 27 92 32 92 20 0 -8 -4 -11 -10 -8 -5 3 -10
1 -10 -4 0 -6 9 -11 20 -11 13 0 20 -7 20 -20 0 -11 -5 -20 -11 -20 -5 0 -7
-4 -4 -10 3 -5 13 -10 21 -10 8 0 13 4 9 9 -3 6 4 9 15 8 11 -1 20 -4 20 -7 0
-8 -182 -75 -295 -108 -350 -103 -779 -92 -1137 28 -200 67 -456 210 -643 359
-151 120 -326 318 -450 509 -135 209 -252 543 -271 775 -6 68 -5 75 12 80 28
7 56 7 81 1z m3885 -49 c-11 -197 -109 -510 -234 -745 -27 -52 -52 -97 -54
-99 -2 -2 -24 13 -49 33 l-45 37 27 42 c95 151 195 442 229 668 8 57 20 107
27 111 7 5 32 7 57 6 l45 -3 -3 -50z m-3652 33 c0 -10 2 -10 8 -1 16 25 36 -4
33 -48 -1 -23 2 -45 7 -48 6 -3 13 -20 17 -36 l6 -30 -15 30 c-14 29 -14 30
-15 5 -1 -28 12 -53 25 -48 5 1 12 -13 15 -32 12 -67 61 -206 110 -308 97
-206 239 -393 403 -530 210 -175 413 -279 666 -342 257 -63 484 -66 740 -9
239 54 497 172 670 308 l65 51 27 -33 c25 -30 26 -33 10 -46 -15 -12 -15 -13
6 -8 12 3 22 1 22 -4 0 -5 -4 -9 -9 -9 -6 0 -16 -12 -23 -27 -19 -39 -193
-155 -343 -228 -295 -144 -576 -202 -892 -183 -216 12 -453 81 -673 194 -396
204 -721 566 -858 956 -35 98 -66 234 -58 255 3 8 1 11 -4 8 -12 -7 -13 10 -2
33 5 9 5 31 1 47 l-7 30 -1 -34 c-2 -49 -7 -35 -15 37 l-7 62 46 0 c29 0 45
-4 45 -12z m3408 -30 l-1 -43 -4 37 c-4 35 -6 37 -46 41 l-42 4 48 1 47 2 -2
-42z m-61 16 c-3 -3 -12 -4 -19 -1 -8 3 -5 6 6 6 11 1 17 -2 13 -5z m-805
-134 c27 -28 30 -36 25 -75 -5 -45 -45 -111 -73 -122 -9 -3 -30 10 -51 31 -40
40 -54 44 -77 20 -9 -8 -16 -13 -16 -10 0 3 -11 1 -24 -4 -41 -15 -37 0 18 64
29 35 61 77 72 94 15 27 24 32 57 32 30 0 46 -7 69 -30z m-1512 -56 c135 -17
396 -80 564 -136 99 -33 276 -105 290 -118 9 -9 -20 -106 -34 -115 -4 -3 -40
8 -79 25 -232 95 -606 194 -839 221 l-114 13 6 28 c3 15 12 43 20 62 l15 36
63 -5 c35 -3 83 -8 108 -11z m2340 -62 c0 -32 -87 -266 -131 -354 l-54 -107
-53 47 -53 47 45 95 c24 52 56 131 71 175 14 44 28 86 30 93 5 14 145 18 145
4z m-912 -107 c-3 -3 -9 2 -12 12 -6 14 -5 15 5 6 7 -7 10 -15 7 -18z m235
-82 c51 -43 182 -157 292 -253 110 -96 236 -204 280 -240 280 -226 621 -509
701 -581 l42 -38 -82 -48 c-44 -26 -84 -49 -88 -51 -12 -6 -1278 1213 -1278
1229 0 10 32 58 38 59 2 0 45 -35 95 -77z m-1683 32 c245 -40 534 -127 730
-221 128 -61 150 -82 150 -142 0 -34 -21 -55 -71 -71 -33 -11 -47 -8 -160 35
-154 57 -442 140 -659 190 -144 32 -182 37 -300 38 -74 1 -142 -1 -150 -4 -23
-8 -26 47 -3 72 10 12 63 43 117 69 92 46 105 49 175 49 42 0 119 -7 171 -15z
m-50 -301 c224 -50 470 -123 650 -192 l75 -29 -41 -7 c-46 -8 -149 12 -374 74
-80 21 -170 46 -200 54 -30 8 -111 31 -179 50 -125 36 -166 43 -174 29 -2 -5
-2 -2 -1 5 2 8 -9 12 -36 12 -46 0 -61 16 -28 30 35 15 178 3 308 -26z m-270
-26 c0 -4 -4 -8 -9 -8 -6 0 -12 4 -15 8 -3 5 1 9 9 9 8 0 15 -4 15 -9z m2044
-3 c5 0 10 -8 12 -18 2 -14 -1 -15 -10 -8 -7 6 -16 7 -20 3 -4 -4 -6 0 -4 8 2
8 -3 14 -10 12 -8 -1 -11 2 -7 8 3 6 12 7 18 3 7 -4 16 -8 21 -8z m237 -182
c13 -16 12 -17 -3 -4 -10 7 -18 15 -18 17 0 8 8 3 21 -13z m-66 -25 c5 4 5 1
1 -6 -6 -10 -11 -10 -22 -1 -8 6 -14 14 -14 16 0 3 6 0 13 -6 8 -6 18 -7 22
-3z m113 -21 c21 -22 21 -23 1 -24 -13 -1 -19 4 -17 15 2 10 -3 16 -10 14 -8
-1 -11 2 -7 8 8 13 8 13 33 -13z m96 -108 c-3 -5 -10 -7 -15 -3 -5 3 -7 10 -4
15 4 5 1 9 -4 9 -6 0 -11 5 -11 12 0 6 8 3 20 -7 11 -10 17 -22 14 -26z m-110
15 c5 -14 4 -15 -9 -4 -17 14 -19 20 -6 20 5 0 12 -7 15 -16z m126 -34 c-9
-17 -8 -20 14 -20 15 0 33 -11 45 -26 12 -15 21 -23 21 -19 0 3 50 -42 111
-101 76 -75 109 -114 106 -126 -3 -10 -2 -17 2 -16 16 5 72 -36 86 -62 14 -26
24 -34 45 -32 3 0 6 -8 6 -18 0 -15 -4 -16 -18 -9 -12 7 -18 6 -18 -1 0 -6 -5
-8 -12 -4 -6 4 -9 3 -6 -2 3 -5 2 -18 -2 -29 -5 -14 -1 -28 13 -45 12 -14 -24
20 -80 74 -56 55 -100 103 -97 107 2 4 -1 11 -7 15 -8 5 -9 3 -4 -7 5 -8 -4
-3 -18 10 -15 13 -24 28 -21 33 3 5 0 7 -8 6 -7 -2 -13 6 -13 16 0 11 -7 21
-15 23 -13 4 -13 3 0 -7 13 -10 13 -11 0 -7 -8 2 -17 12 -18 23 -2 10 -8 24
-14 29 -6 6 -7 3 -2 -10 5 -17 4 -17 -11 3 -9 13 -15 32 -12 43 4 13 1 19 -6
16 -7 -3 -11 -10 -9 -16 3 -17 0 -15 -56 42 -50 50 -52 55 -35 68 16 13 17 12
4 -3 -12 -16 -10 -22 5 -15 3 1 12 -9 19 -23 18 -32 19 -13 1 37 -9 26 -11 45
-4 56 13 24 21 21 8 -3z m-60 -40 c0 -5 -2 -10 -4 -10 -3 0 -8 5 -11 10 -3 6
-1 10 4 10 6 0 11 -4 11 -10z m1708 -316 c111 -72 62 -254 -68 -254 -111 0
-177 98 -130 196 38 77 128 103 198 58z m-1157 -101 c13 -16 12 -17 -3 -4 -10
7 -18 15 -18 17 0 8 8 3 21 -13z m-1111 -47 c0 -2 -7 -7 -16 -10 -8 -3 -12 -2
-9 4 6 10 25 14 25 6z m1581 -26 c54 -29 60 -113 12 -170 -31 -37 -105 -90
-136 -96 -66 -12 -121 -15 -107 -5 11 8 7 9 -18 5 -25 -5 -31 -3 -27 7 2 8 7
26 9 42 8 49 122 168 201 210 36 19 41 20 66 7z m-491 -29 c0 -6 -4 -12 -8
-15 -5 -3 -9 1 -9 9 0 8 4 15 9 15 4 0 8 -4 8 -9z m31 -54 c-10 -9 -11 -8 -5
6 3 10 9 15 12 12 3 -3 0 -11 -7 -18z m627 -137 c48 -29 69 -79 54 -129 -12
-37 -62 -86 -62 -60 0 7 -3 9 -7 6 -3 -4 -15 1 -26 10 -10 10 -26 18 -35 18
-10 0 -19 12 -23 30 -4 17 -7 24 -8 17 0 -7 -7 -12 -13 -11 -20 3 -68 -12 -68
-22 0 -5 -5 -9 -10 -9 -39 0 117 164 160 169 3 1 20 -8 38 -19z m-5118 -595
c5 -558 5 -556 65 -603 l28 -22 -177 0 -178 0 35 40 c19 23 37 55 41 72 11 54
7 860 -5 901 -7 25 -21 44 -41 56 l-30 19 104 25 c56 15 114 25 128 24 l25 -2
5 -510z m-486 425 c33 -13 79 -40 102 -62 62 -57 79 -109 79 -238 0 -126 -13
-137 -61 -47 -65 123 -155 179 -289 180 -155 1 -282 -102 -315 -254 -33 -148
39 -301 192 -415 160 -118 369 -110 424 16 10 22 22 40 26 40 5 0 27 -9 49
-20 45 -24 45 -33 3 -107 -64 -111 -240 -183 -413 -170 -281 22 -512 247 -528
517 -10 166 41 295 166 420 82 82 163 128 267 155 84 21 222 14 298 -15z
m3791 20 c134 -20 240 -92 292 -199 24 -48 28 -68 28 -141 0 -76 -4 -93 -33
-152 -67 -137 -209 -217 -384 -218 l-68 0 0 -102 c0 -57 5 -120 10 -140 12
-43 53 -96 84 -108 12 -5 -71 -9 -202 -9 l-223 -1 36 31 c62 55 65 80 65 536
0 447 -1 456 -62 493 l-33 20 210 0 c116 0 241 -5 280 -10z m1619 -21 c8 7 12
4 13 -12 2 -15 0 -18 -6 -9 -5 8 -12 13 -17 12 -5 -1 -9 3 -11 10 -1 7 0 7 4
0 3 -7 9 -8 17 -1z m56 -3 c0 -23 -11 -46 -22 -46 -6 0 -4 7 3 17 11 13 11 17
2 20 -18 6 -16 23 2 23 8 0 15 -6 15 -14z m515 -265 c49 -22 101 -78 110 -122
9 -38 -4 -49 -57 -49 -37 0 -41 3 -79 52 -56 75 -219 50 -219 -34 0 -47 32
-81 127 -132 182 -97 235 -157 234 -265 0 -32 -6 -74 -14 -93 -87 -207 -434
-201 -517 9 -17 45 -8 63 34 63 28 0 47 -10 88 -46 67 -61 129 -88 180 -81 75
10 112 78 73 135 -9 12 -70 49 -135 83 -132 67 -192 121 -211 192 -34 126 67
279 203 307 55 11 132 3 183 -19z m-4971 3 c62 -21 121 -78 135 -129 6 -24 11
-134 11 -275 0 -275 5 -294 78 -321 34 -12 40 -18 30 -26 -25 -21 -129 -45
-165 -38 -44 8 -83 46 -83 80 0 32 -4 31 -49 -4 -125 -99 -250 -105 -337 -17
-59 59 -77 134 -52 218 26 86 191 202 328 229 l60 12 0 69 c0 60 -3 72 -25 93
-48 48 -157 25 -170 -36 -7 -31 -8 -31 -52 -25 -57 7 -63 12 -63 42 0 32 59
97 113 123 53 26 171 29 241 5z m1429 5 c53 -14 114 -72 129 -121 14 -47 4
-58 -51 -58 -28 0 -43 9 -76 44 -29 30 -54 45 -79 50 -80 15 -146 -21 -146
-79 0 -46 29 -77 112 -120 155 -81 226 -146 249 -230 21 -75 -12 -169 -81
-227 -48 -41 -104 -60 -180 -60 -147 0 -245 69 -275 195 -7 26 -6 27 38 27 30
0 49 -6 58 -17 31 -38 131 -102 169 -108 60 -10 109 10 126 52 25 58 -1 87
-129 153 -186 96 -245 166 -234 275 3 29 14 70 26 93 25 48 98 115 143 129 44
14 154 15 201 2z m629 -1 c49 -14 123 -78 148 -127 21 -42 40 -135 40 -198 l0
-43 -218 0 c-120 0 -221 -2 -224 -5 -10 -10 11 -106 33 -150 52 -105 121 -155
214 -155 52 0 117 24 162 60 36 28 44 25 31 -11 -17 -49 -78 -106 -152 -140
-62 -29 -74 -31 -144 -27 -132 8 -227 73 -284 195 -74 158 -54 382 45 499 33
39 95 82 144 100 47 16 153 18 205 2z m1466 -19 c107 -53 106 -50 112 -364 5
-231 8 -275 23 -302 19 -36 44 -53 77 -53 37 0 12 -18 -56 -40 -73 -25 -116
-22 -158 11 -14 11 -26 31 -26 43 0 36 -10 37 -50 6 -55 -44 -139 -80 -186
-80 -55 0 -136 42 -167 88 -38 53 -52 126 -37 181 26 97 167 200 325 237 l77
18 -6 76 c-4 41 -13 81 -21 89 -7 7 -33 15 -57 18 -60 7 -106 -17 -115 -59 -6
-29 -7 -30 -50 -25 -25 2 -49 9 -55 15 -28 28 33 115 105 151 32 16 61 21 123
21 70 0 89 -4 142 -31z m2095 -2 c91 -54 133 -132 144 -269 l6 -78 -228 0
-227 0 6 -32 c23 -114 84 -218 151 -255 73 -41 196 -23 262 39 34 32 41 13 14
-37 -27 -51 -68 -85 -143 -120 -111 -52 -260 -22 -352 69 -136 137 -155 436
-36 586 72 91 160 131 276 127 66 -3 89 -8 127 -30z m-5103 -270 c0 -321 0
-321 62 -353 26 -13 37 -14 74 -4 24 7 55 23 69 36 l25 23 0 247 c0 241 -1
248 -22 271 -20 22 -21 23 -2 23 10 0 57 12 103 25 47 14 91 25 98 25 10 0 13
-64 13 -320 0 -367 2 -378 70 -409 30 -13 37 -21 28 -28 -24 -19 -81 -33 -133
-33 -61 0 -105 27 -105 65 0 39 -17 38 -76 -4 -72 -51 -142 -75 -197 -67 -60
9 -116 44 -152 94 l-30 44 -5 280 c-5 279 -5 280 -29 299 -13 10 -22 19 -20
20 2 0 45 13 94 28 50 16 100 29 113 30 l22 1 0 -293z m3500 8 c0 -306 3 -330
52 -356 29 -16 91 -13 127 5 59 31 61 38 61 288 0 222 -7 278 -34 278 -43 0
74 41 168 59 l43 8 6 -186 c4 -102 7 -247 7 -321 0 -153 11 -190 69 -221 18
-10 35 -20 38 -23 3 -2 -27 -15 -67 -27 -61 -18 -78 -20 -110 -10 -42 12 -80
52 -80 82 0 26 -6 24 -72 -21 -132 -93 -236 -93 -328 -1 -65 65 -70 92 -70
381 l0 241 -25 25 c-31 31 -31 34 -2 35 12 0 54 11 92 24 39 12 82 23 98 24
l27 1 0 -285z"/>
<path d="M4768 6085 c-55 -30 -47 -67 33 -147 27 -27 49 -55 49 -62 0 -15 -82
-73 -144 -102 -48 -23 -61 -42 -52 -77 7 -29 51 -57 88 -57 30 0 68 26 68 46
0 20 18 35 155 131 143 100 155 111 155 145 0 40 -32 68 -78 68 -47 0 -72 -24
-72 -68 0 -20 -5 -32 -13 -32 -19 0 -57 55 -57 84 0 38 -10 55 -41 71 -35 19
-56 18 -91 0z"/>
<path d="M5226 5968 c-9 -12 -16 -28 -16 -35 0 -7 -62 -56 -137 -109 -164
-116 -183 -132 -183 -155 0 -26 48 -59 84 -59 42 0 78 26 74 53 -6 46 34 63
66 29 11 -13 14 -28 10 -50 -13 -67 80 -108 140 -61 14 11 26 29 26 39 0 10
-22 46 -50 81 -27 35 -50 69 -50 76 0 6 30 26 68 44 89 43 102 55 102 96 0 46
-29 73 -79 73 -30 0 -44 -6 -55 -22z"/>
<path d="M3413 5443 c9 -2 25 -2 35 0 9 3 1 5 -18 5 -19 0 -27 -2 -17 -5z"/>
<path d="M3438 5320 c3 -31 8 -40 23 -40 15 0 19 7 19 40 0 35 -3 40 -23 40
-20 0 -22 -4 -19 -40z"/>
<path d="M6655 4290 c3 -5 8 -10 11 -10 2 0 4 5 4 10 0 6 -5 10 -11 10 -5 0
-7 -4 -4 -10z"/>
<path d="M6680 4261 c0 -5 7 -11 15 -15 8 -3 12 -12 9 -21 -3 -8 -1 -15 5 -15
16 0 13 26 -5 44 -18 18 -24 20 -24 7z"/>
<path d="M6640 4220 c6 -11 13 -20 16 -20 2 0 0 9 -6 20 -6 11 -13 20 -16 20
-2 0 0 -9 6 -20z"/>
<path d="M6733 4215 c0 -8 4 -12 8 -9 4 2 12 -4 18 -13 6 -10 11 -13 11 -7 0
6 -8 18 -18 27 -15 14 -19 15 -19 2z"/>
<path d="M6846 4112 c-3 -6 -1 -14 5 -17 15 -10 25 3 12 16 -7 7 -13 7 -17 1z"/>
<path d="M6791 4064 c0 -11 3 -14 6 -6 3 7 2 16 -1 19 -3 4 -6 -2 -5 -13z"/>
<path d="M6858 3993 c7 -3 16 -2 19 1 4 3 -2 6 -13 5 -11 0 -14 -3 -6 -6z"/>
<path d="M6890 3956 c0 -2 7 -9 15 -16 9 -7 15 -8 15 -2 0 5 -7 12 -15 16 -8
3 -15 4 -15 2z"/>
<path d="M6935 3910 c3 -5 11 -10 16 -10 6 0 7 5 4 10 -3 6 -11 10 -16 10 -6
0 -7 -4 -4 -10z"/>
<path d="M8130 3955 c-21 -25 -1 -31 23 -7 17 18 18 22 5 22 -8 0 -21 -7 -28
-15z"/>
<path d="M8266 3922 c10 -21 14 -45 10 -63 -3 -19 -2 -28 4 -24 17 11 11 72
-10 96 l-20 24 16 -33z"/>
<path d="M8086 3833 c7 -27 31 -48 64 -58 23 -6 23 -5 -5 14 -16 11 -37 31
-47 43 -17 23 -17 23 -12 1z"/>
<path d="M8214 3784 c-18 -14 -18 -15 4 -4 12 6 22 13 22 15 0 8 -5 6 -26 -11z"/>
<path d="M5760 3105 c0 -255 -5 -240 82 -239 58 1 112 39 139 98 24 53 26 190
3 244 -32 78 -95 122 -174 122 l-50 0 0 -225z"/>
<path d="M3019 2769 c-31 -11 -74 -34 -94 -52 -32 -28 -38 -40 -42 -84 -5 -48
-3 -55 25 -83 34 -34 64 -38 119 -15 69 29 73 37 73 152 0 116 4 112 -81 82z"/>
<path d="M5031 3072 c-49 -24 -74 -63 -75 -114 l-1 -43 125 -3 c93 -2 130 1
144 11 17 13 17 15 -4 66 -39 89 -113 122 -189 83z"/>
<path d="M6516 2765 c-95 -33 -146 -86 -146 -151 0 -35 59 -94 94 -94 35 0 89
23 115 49 19 19 21 33 21 121 0 55 -3 100 -7 100 -5 0 -39 -11 -77 -25z"/>
<path d="M8550 3072 c-46 -23 -80 -75 -80 -123 l0 -39 134 0 c156 0 167 5 141
66 -19 45 -49 80 -87 100 -36 19 -66 18 -108 -4z"/>
</g>
</svg>
